# xmcd
#
# Track frame offsets:
# 150
# 10504
# 20633
# 30707
# 40804
# 51695
# 62698
# 72808
# 82878
# 93393
#
# Disc length: 1392 seconds
#
#
# Revision: 0
# Processed by: cddbd v1.5.2PL0 Copyright (c) Steve Scherf et al.
# Submitted via: FreeRIP 2.951 
#
DISCID=79056e0a
DTITLE=umbanda - xango
DYEAR=1900
DGENRE=Vocal
TTITLE0=xango01
TTITLE1=xango-02
TTITLE2=xango-03
TTITLE3=xango04
TTITLE4=xango-05
TTITLE5=xango-06
TTITLE6=xango-07
TTITLE7=xango-08
TTITLE8=xango-09
TTITLE9=xango-10
EXTD=
EXTT0=
EXTT1=
EXTT2=
EXTT3=
EXTT4=
EXTT5=
EXTT6=
EXTT7=
EXTT8=
EXTT9=
PLAYORDER=
